<svg xmlns="http://www.w3.org/2000/svg" viewBox="0 0 200 200" role="img" aria-label="अशोक चक्र">
<circle cx="100" cy="100" r="98" fill="#ffffff"/>
<circle cx="100" cy="100" r="94" fill="none" stroke="#0a2c6e" stroke-width="6"/>
<line x1="100" y1="100" x2="192.00" y2="100.00" stroke="#0a2c6e" stroke-width="3"/>
<line x1="100" y1="100" x2="188.87" y2="123.81" stroke="#0a2c6e" stroke-width="3"/>
<line x1="100" y1="100" x2="179.67" y2="146.00" stroke="#0a2c6e" stroke-width="3"/>
<line x1="100" y1="100" x2="165.05" y2="165.05" stroke="#0a2c6e" stroke-width="3"/>
<line x1="100" y1="100" x2="146.00" y2="179.67" stroke="#0a2c6e" stroke-width="3"/>
<line x1="100" y1="100" x2="123.81" y2="188.87" stroke="#0a2c6e" stroke-width="3"/>
<line x1="100" y1="100" x2="100.00" y2="192.00" stroke="#0a2c6e" stroke-width="3"/>
<line x1="100" y1="100" x2="76.19" y2="188.87" stroke="#0a2c6e" stroke-width="3"/>
<line x1="100" y1="100" x2="54.00" y2="179.67" stroke="#0a2c6e" stroke-width="3"/>
<line x1="100" y1="100" x2="34.95" y2="165.05" stroke="#0a2c6e" stroke-width="3"/>
<line x1="100" y1="100" x2="20.33" y2="146.00" stroke="#0a2c6e" stroke-width="3"/>
<line x1="100" y1="100" x2="11.13" y2="123.81" stroke="#0a2c6e" stroke-width="3"/>
<line x1="100" y1="100" x2="8.00" y2="100.00" stroke="#0a2c6e" stroke-width="3"/>
<line x1="100" y1="100" x2="11.13" y2="76.19" stroke="#0a2c6e" stroke-width="3"/>
<line x1="100" y1="100" x2="20.33" y2="54.00" stroke="#0a2c6e" stroke-width="3"/>
<line x1="100" y1="100" x2="34.95" y2="34.95" stroke="#0a2c6e" stroke-width="3"/>
<line x1="100" y1="100" x2="54.00" y2="20.33" stroke="#0a2c6e" stroke-width="3"/>
<line x1="100" y1="100" x2="76.19" y2="11.13" stroke="#0a2c6e" stroke-width="3"/>
<line x1="100" y1="100" x2="100.00" y2="8.00" stroke="#0a2c6e" stroke-width="3"/>
<line x1="100" y1="100" x2="123.81" y2="11.13" stroke="#0a2c6e" stroke-width="3"/>
<line x1="100" y1="100" x2="146.00" y2="20.33" stroke="#0a2c6e" stroke-width="3"/>
<line x1="100" y1="100" x2="165.05" y2="34.95" stroke="#0a2c6e" stroke-width="3"/>
<line x1="100" y1="100" x2="179.67" y2="54.00" stroke="#0a2c6e" stroke-width="3"/>
<line x1="100" y1="100" x2="188.87" y2="76.19" stroke="#0a2c6e" stroke-width="3"/>
<circle cx="100" cy="100" r="13" fill="#0a2c6e"/>
</svg>