<svg xmlns="http://www.w3.org/2000/svg" viewBox="0 0 200 200" role="img" aria-label="भारत शासन">
<circle cx="100" cy="100" r="98" fill="#0a1f44"/>
<circle cx="100" cy="100" r="86" fill="#ffffff"/>
<path d="M100 20 A80 80 0 0 1 180 100 L155 100 A55 55 0 0 0 100 45 Z" fill="#FF8000"/>
<path d="M180 100 A80 80 0 0 1 100 180 L100 155 A55 55 0 0 0 155 100 Z" fill="#0B7A2E"/>
<path d="M100 180 A80 80 0 0 1 20 100 L45 100 A55 55 0 0 0 100 155 Z" fill="#FF8000"/>
<path d="M20 100 A80 80 0 0 1 100 20 L100 45 A55 55 0 0 0 45 100 Z" fill="#0B7A2E"/>
<circle cx="100" cy="100" r="34" fill="#ffffff" stroke="#0a2c6e" stroke-width="3"/>
<line x1="100" y1="100" x2="131.0" y2="100.0" stroke="#0a2c6e" stroke-width="1.4"/><line x1="100" y1="100" x2="129.9" y2="108.0" stroke="#0a2c6e" stroke-width="1.4"/><line x1="100" y1="100" x2="126.8" y2="115.5" stroke="#0a2c6e" stroke-width="1.4"/><line x1="100" y1="100" x2="121.9" y2="121.9" stroke="#0a2c6e" stroke-width="1.4"/><line x1="100" y1="100" x2="115.5" y2="126.8" stroke="#0a2c6e" stroke-width="1.4"/><line x1="100" y1="100" x2="108.0" y2="129.9" stroke="#0a2c6e" stroke-width="1.4"/><line x1="100" y1="100" x2="100.0" y2="131.0" stroke="#0a2c6e" stroke-width="1.4"/><line x1="100" y1="100" x2="92.0" y2="129.9" stroke="#0a2c6e" stroke-width="1.4"/><line x1="100" y1="100" x2="84.5" y2="126.8" stroke="#0a2c6e" stroke-width="1.4"/><line x1="100" y1="100" x2="78.1" y2="121.9" stroke="#0a2c6e" stroke-width="1.4"/><line x1="100" y1="100" x2="73.2" y2="115.5" stroke="#0a2c6e" stroke-width="1.4"/><line x1="100" y1="100" x2="70.1" y2="108.0" stroke="#0a2c6e" stroke-width="1.4"/><line x1="100" y1="100" x2="69.0" y2="100.0" stroke="#0a2c6e" stroke-width="1.4"/><line x1="100" y1="100" x2="70.1" y2="92.0" stroke="#0a2c6e" stroke-width="1.4"/><line x1="100" y1="100" x2="73.2" y2="84.5" stroke="#0a2c6e" stroke-width="1.4"/><line x1="100" y1="100" x2="78.1" y2="78.1" stroke="#0a2c6e" stroke-width="1.4"/><line x1="100" y1="100" x2="84.5" y2="73.2" stroke="#0a2c6e" stroke-width="1.4"/><line x1="100" y1="100" x2="92.0" y2="70.1" stroke="#0a2c6e" stroke-width="1.4"/><line x1="100" y1="100" x2="100.0" y2="69.0" stroke="#0a2c6e" stroke-width="1.4"/><line x1="100" y1="100" x2="108.0" y2="70.1" stroke="#0a2c6e" stroke-width="1.4"/><line x1="100" y1="100" x2="115.5" y2="73.2" stroke="#0a2c6e" stroke-width="1.4"/><line x1="100" y1="100" x2="121.9" y2="78.1" stroke="#0a2c6e" stroke-width="1.4"/><line x1="100" y1="100" x2="126.8" y2="84.5" stroke="#0a2c6e" stroke-width="1.4"/><line x1="100" y1="100" x2="129.9" y2="92.0" stroke="#0a2c6e" stroke-width="1.4"/>
<circle cx="100" cy="100" r="6" fill="#0a2c6e"/></svg>